<?xml version="1.0" ?><svg viewBox="0 0 48 48" xmlns="http://www.w3.org/2000/svg"><title/><g data-name="2-Control" id="_2-Control"><path d="M43,0H5A5,5,0,0,0,0,5V43a5,5,0,0,0,5,5H43a5,5,0,0,0,5-5V5A5,5,0,0,0,43,0Zm3,43a3,3,0,0,1-3,3H5a3,3,0,0,1-3-3V5A3,3,0,0,1,5,2H43a3,3,0,0,1,3,3Z"/><path d="M25,11.1V6H23v5.1a5,5,0,0,0,0,9.8V42h2V20.9a5,5,0,0,0,0-9.8ZM24,19a3,3,0,1,1,3-3A3,3,0,0,1,24,19Z"/><path d="M37,22.1V6H35V22.1a5,5,0,0,0,0,9.8V42h2V31.9a5,5,0,0,0,0-9.8ZM36,30a3,3,0,1,1,3-3A3,3,0,0,1,36,30Z"/><path d="M13,26.1V6H11V26.1a5,5,0,0,0,0,9.8V42h2V35.9a5,5,0,0,0,0-9.8ZM12,34a3,3,0,1,1,3-3A3,3,0,0,1,12,34Z"/></g></svg>