<?xml version="1.0" ?><svg viewBox="0 0 64 64" xmlns="http://www.w3.org/2000/svg"><title/><g data-name="Layer 24" id="Layer_24"><path d="M48,19H46V6a3,3,0,0,0-3-3H21a3,3,0,0,0-3,3V19H16a2,2,0,0,0-2,2V37h7.83A14.85,14.85,0,0,0,31,41V57H22.4c-1.91,0-3.4,2.2-3.4,5h2c0-1.83.83-3,1.4-3H41.6c.57,0,1.4,1.17,1.4,3h2c0-2.8-1.49-5-3.4-5H33V41a14.85,14.85,0,0,0,9.17-4H50V21A2,2,0,0,0,48,19Zm0,2V31.56A3.91,3.91,0,0,0,46,31V21ZM20,6a1,1,0,0,1,1-1H43a1,1,0,0,1,1,1V31H20V6ZM18,21V31a3.91,3.91,0,0,0-2,.56V21Zm7.1,16H31v2A12.83,12.83,0,0,1,25.1,37ZM33,39V37h5.9A12.83,12.83,0,0,1,33,39Zm11-4H16a2,2,0,0,1,2-2H46a2,2,0,0,1,2,2Z"/></g></svg>