<?xml version="1.0" ?><!DOCTYPE svg  PUBLIC '-//W3C//DTD SVG 1.1//EN'  'http://www.w3.org/Graphics/SVG/1.1/DTD/svg11.dtd'><svg enable-background="new 0 0 512 512" id="Layer_1" version="1.1" viewBox="0 0 512 512" xml:space="preserve" xmlns="http://www.w3.org/2000/svg" xmlns:xlink="http://www.w3.org/1999/xlink"><g><line fill="none" stroke="#000000" stroke-linecap="round" stroke-linejoin="round" stroke-miterlimit="10" stroke-width="10" x1="327.7" x2="423.7" y1="92.8" y2="92.8"/><line fill="none" stroke="#000000" stroke-linecap="round" stroke-linejoin="round" stroke-miterlimit="10" stroke-width="10" x1="209" x2="304.6" y1="92.8" y2="92.8"/><line fill="none" stroke="#000000" stroke-linecap="round" stroke-linejoin="round" stroke-miterlimit="10" stroke-width="10" x1="89.5" x2="184.8" y1="92.8" y2="92.8"/><path d="   M446.5,92.8h45.9c2,0,3.6,1.6,3.6,3.6v344.1c0,2-1.6,3.6-3.6,3.6H19.6c-2,0-3.6-1.6-3.6-3.6V96.4c0-2,1.6-3.6,3.6-3.6h44.6" fill="none" stroke="#000000" stroke-linecap="round" stroke-linejoin="round" stroke-miterlimit="10" stroke-width="10"/><line fill="none" stroke="#000000" stroke-linecap="round" stroke-linejoin="round" stroke-miterlimit="10" stroke-width="10" x1="496" x2="16" y1="163.5" y2="163.5"/><g><g><path d="     M86.8,245H57.6c-2.1,0-3.9-1.7-3.9-3.9v-29.2c0-2.1,1.7-3.9,3.9-3.9h29.2c2.1,0,3.9,1.7,3.9,3.9v29.2     C90.7,243.2,88.9,245,86.8,245z" fill="none" stroke="#000000" stroke-linecap="round" stroke-linejoin="round" stroke-miterlimit="10" stroke-width="10"/><path d="     M160.3,245h-29.2c-2.1,0-3.9-1.7-3.9-3.9v-29.2c0-2.1,1.7-3.9,3.9-3.9h29.2c2.1,0,3.9,1.7,3.9,3.9v29.2     C164.2,243.2,162.5,245,160.3,245z" fill="none" stroke="#000000" stroke-linecap="round" stroke-linejoin="round" stroke-miterlimit="10" stroke-width="10"/><path d="     M233.8,245h-29.2c-2.1,0-3.9-1.7-3.9-3.9v-29.2c0-2.1,1.7-3.9,3.9-3.9h29.2c2.1,0,3.9,1.7,3.9,3.9v29.2     C237.7,243.2,236,245,233.8,245z" fill="none" stroke="#000000" stroke-linecap="round" stroke-linejoin="round" stroke-miterlimit="10" stroke-width="10"/><path d="     M307.4,245h-29.2c-2.1,0-3.9-1.7-3.9-3.9v-29.2c0-2.1,1.7-3.9,3.9-3.9h29.2c2.1,0,3.9,1.7,3.9,3.9v29.2     C311.3,243.2,309.5,245,307.4,245z" fill="none" stroke="#000000" stroke-linecap="round" stroke-linejoin="round" stroke-miterlimit="10" stroke-width="10"/><path d="     M380.9,245h-29.2c-2.1,0-3.9-1.7-3.9-3.9v-29.2c0-2.1,1.7-3.9,3.9-3.9h29.2c2.1,0,3.9,1.7,3.9,3.9v29.2     C384.8,243.2,383,245,380.9,245z" fill="none" stroke="#000000" stroke-linecap="round" stroke-linejoin="round" stroke-miterlimit="10" stroke-width="10"/><path d="     M454.4,245h-29.2c-2.1,0-3.9-1.7-3.9-3.9v-29.2c0-2.1,1.7-3.9,3.9-3.9h29.2c2.1,0,3.9,1.7,3.9,3.9v29.2     C458.3,243.2,456.6,245,454.4,245z" fill="none" stroke="#000000" stroke-linecap="round" stroke-linejoin="round" stroke-miterlimit="10" stroke-width="10"/></g><g><path d="     M86.8,320.7H57.6c-2.1,0-3.9-1.7-3.9-3.9v-29.2c0-2.1,1.7-3.9,3.9-3.9h29.2c2.1,0,3.9,1.7,3.9,3.9v29.2     C90.7,319,88.9,320.7,86.8,320.7z" fill="none" stroke="#000000" stroke-linecap="round" stroke-linejoin="round" stroke-miterlimit="10" stroke-width="10"/><path d="     M160.3,320.7h-29.2c-2.1,0-3.9-1.7-3.9-3.9v-29.2c0-2.1,1.7-3.9,3.9-3.9h29.2c2.1,0,3.9,1.7,3.9,3.9v29.2     C164.2,319,162.5,320.7,160.3,320.7z" fill="none" stroke="#000000" stroke-linecap="round" stroke-linejoin="round" stroke-miterlimit="10" stroke-width="10"/><path d="     M233.8,320.7h-29.2c-2.1,0-3.9-1.7-3.9-3.9v-29.2c0-2.1,1.7-3.9,3.9-3.9h29.2c2.1,0,3.9,1.7,3.9,3.9v29.2     C237.7,319,236,320.7,233.8,320.7z" fill="none" stroke="#000000" stroke-linecap="round" stroke-linejoin="round" stroke-miterlimit="10" stroke-width="10"/><path d="     M307.4,320.7h-29.2c-2.1,0-3.9-1.7-3.9-3.9v-29.2c0-2.1,1.7-3.9,3.9-3.9h29.2c2.1,0,3.9,1.7,3.9,3.9v29.2     C311.3,319,309.5,320.7,307.4,320.7z" fill="none" stroke="#000000" stroke-linecap="round" stroke-linejoin="round" stroke-miterlimit="10" stroke-width="10"/><path d="     M380.9,320.7h-29.2c-2.1,0-3.9-1.7-3.9-3.9v-29.2c0-2.1,1.7-3.9,3.9-3.9h29.2c2.1,0,3.9,1.7,3.9,3.9v29.2     C384.8,319,383,320.7,380.9,320.7z" fill="none" stroke="#000000" stroke-linecap="round" stroke-linejoin="round" stroke-miterlimit="10" stroke-width="10"/><path d="     M454.4,320.7h-29.2c-2.1,0-3.9-1.7-3.9-3.9v-29.2c0-2.1,1.7-3.9,3.9-3.9h29.2c2.1,0,3.9,1.7,3.9,3.9v29.2     C458.3,319,456.6,320.7,454.4,320.7z" fill="none" stroke="#000000" stroke-linecap="round" stroke-linejoin="round" stroke-miterlimit="10" stroke-width="10"/></g><g><path d="     M86.8,396.4H57.6c-2.1,0-3.9-1.7-3.9-3.9v-29.2c0-2.1,1.7-3.9,3.9-3.9h29.2c2.1,0,3.9,1.7,3.9,3.9v29.2     C90.7,394.7,88.9,396.4,86.8,396.4z" fill="none" stroke="#000000" stroke-linecap="round" stroke-linejoin="round" stroke-miterlimit="10" stroke-width="10"/><path d="     M160.3,396.4h-29.2c-2.1,0-3.9-1.7-3.9-3.9v-29.2c0-2.1,1.7-3.9,3.9-3.9h29.2c2.1,0,3.9,1.7,3.9,3.9v29.2     C164.2,394.7,162.5,396.4,160.3,396.4z" fill="none" stroke="#000000" stroke-linecap="round" stroke-linejoin="round" stroke-miterlimit="10" stroke-width="10"/><path d="     M233.8,396.4h-29.2c-2.1,0-3.9-1.7-3.9-3.9v-29.2c0-2.1,1.7-3.9,3.9-3.9h29.2c2.1,0,3.9,1.7,3.9,3.9v29.2     C237.7,394.7,236,396.4,233.8,396.4z" fill="none" stroke="#000000" stroke-linecap="round" stroke-linejoin="round" stroke-miterlimit="10" stroke-width="10"/><path d="     M307.4,396.4h-29.2c-2.1,0-3.9-1.7-3.9-3.9v-29.2c0-2.1,1.7-3.9,3.9-3.9h29.2c2.1,0,3.9,1.7,3.9,3.9v29.2     C311.3,394.7,309.5,396.4,307.4,396.4z" fill="none" stroke="#000000" stroke-linecap="round" stroke-linejoin="round" stroke-miterlimit="10" stroke-width="10"/></g></g><g><path d="    M83.7,122.9H70.3c-1.9,0-3.4-1.5-3.4-3.4V71.3c0-1.9,1.5-3.4,3.4-3.4h13.5c1.9,0,3.4,1.5,3.4,3.4v48.2    C87.1,121.3,85.6,122.9,83.7,122.9z" fill="none" stroke="#000000" stroke-linecap="round" stroke-linejoin="round" stroke-miterlimit="10" stroke-width="10"/><path d="    M203.1,122.9h-13.5c-1.9,0-3.4-1.5-3.4-3.4V71.3c0-1.9,1.5-3.4,3.4-3.4h13.5c1.9,0,3.4,1.5,3.4,3.4v48.2    C206.5,121.3,205,122.9,203.1,122.9z" fill="none" stroke="#000000" stroke-linecap="round" stroke-linejoin="round" stroke-miterlimit="10" stroke-width="10"/><path d="    M322.4,122.9h-13.5c-1.9,0-3.4-1.5-3.4-3.4V71.3c0-1.9,1.5-3.4,3.4-3.4h13.5c1.9,0,3.4,1.5,3.4,3.4v48.2    C325.8,121.3,324.3,122.9,322.4,122.9z" fill="none" stroke="#000000" stroke-linecap="round" stroke-linejoin="round" stroke-miterlimit="10" stroke-width="10"/><path d="    M441.7,122.9h-13.5c-1.9,0-3.4-1.5-3.4-3.4V71.3c0-1.9,1.5-3.4,3.4-3.4h13.5c1.9,0,3.4,1.5,3.4,3.4v48.2    C445.1,121.3,443.6,122.9,441.7,122.9z" fill="none" stroke="#000000" stroke-linecap="round" stroke-linejoin="round" stroke-miterlimit="10" stroke-width="10"/></g></g></svg>